<?xml version="1.0" standalone="no"?>
<!DOCTYPE svg PUBLIC "-//W3C//DTD SVG 20010904//EN"
 "http://www.w3.org/TR/2001/REC-SVG-20010904/DTD/svg10.dtd">
<svg version="1.0" xmlns="http://www.w3.org/2000/svg"
 width="200.000000pt" height="200.000000pt" viewBox="0 0 200.000000 200.000000"
 preserveAspectRatio="xMidYMid meet">
<metadata>
Created by potrace 1.16, written by Peter Selinger 2001-2019
</metadata>
<g transform="translate(0.000000,200.000000) scale(0.100000,-0.100000)"
fill="#000000" stroke="none">
<path d="M743 1907 c416 -256 638 -507 637 -720 -1 -94 -44 -158 -134 -198
-85 -37 -184 -48 -446 -49 -254 0 -307 -6 -348 -37 -36 -27 -43 -54 -25 -92
17 -34 86 -81 121 -81 39 0 32 -17 -13 -30 -74 -21 -108 -64 -89 -115 10 -25
60 -45 131 -52 l66 -6 -83 -27 c-87 -28 -120 -54 -120 -94 0 -48 75 -84 180
-87 45 -1 45 -1 -27 -19 -123 -32 -164 -66 -149 -123 16 -66 146 -80 723 -74
454 4 492 7 528 47 45 50 7 107 -92 136 -32 9 -65 19 -73 22 -8 3 16 9 54 13
175 19 174 137 -2 184 -51 13 -48 16 40 30 54 9 91 44 90 85 -2 66 -79 113
-214 128 l-63 8 50 17 c142 49 245 193 245 342 0 135 -58 253 -190 386 -193
195 -579 401 -814 435 l-41 6 58 -35z"/>
</g>
</svg>
